<svg xmlns="http://www.w3.org/2000/svg" width="17.477" height="20" viewBox="0 0 17.477 20">
  <g id="arrows" transform="translate(49.781 20) rotate(180)">
    <g id="Сгруппировать_8" data-name="Сгруппировать 8" transform="translate(32.304)">
      <path id="Контур_21" data-name="Контур 21" d="M49.749,11.087a.417.417,0,0,0-.385-.257H44.8V.417A.417.417,0,0,0,44.383,0H37.719A.417.417,0,0,0,37.3.417V10.83H32.721a.416.416,0,0,0-.295.711l8.31,8.337a.417.417,0,0,0,.59,0l8.334-8.337A.416.416,0,0,0,49.749,11.087Z" transform="translate(-32.304)" fill="#6d6d6d"/>
    </g>
  </g>
</svg>
