<svg xmlns="http://www.w3.org/2000/svg" width="20" height="17.857" viewBox="0 0 20 17.857">
  <g id="couple-of-arrows-changing-places" transform="translate(0 -27.411)">
    <g id="Сгруппировать_6" data-name="Сгруппировать 6" transform="translate(0 27.411)">
      <path id="Контур_16" data-name="Контур 16" d="M9.178,36.9q.513-1.216.87-1.908a9.518,9.518,0,0,1,.5-.865,4.516,4.516,0,0,1,.569-.686,2.19,2.19,0,0,1,.77-.5,2.684,2.684,0,0,1,.971-.167h2.857v2.143a.363.363,0,0,0,.613.257L19.9,31.6a.378.378,0,0,0,0-.514l-3.56-3.56a.419.419,0,0,0-.268-.111.343.343,0,0,0-.357.357v2.143H12.861a5.369,5.369,0,0,0-1.429.184,5.49,5.49,0,0,0-1.189.469,4.55,4.55,0,0,0-1,.765,8.917,8.917,0,0,0-.826.926A9.469,9.469,0,0,0,7.7,33.371q-.374.67-.6,1.172t-.552,1.239Q6.031,37,5.674,37.69a9.535,9.535,0,0,1-.5.865,4.522,4.522,0,0,1-.569.686,2.189,2.189,0,0,1-.77.5,2.686,2.686,0,0,1-.971.167H.361A.344.344,0,0,0,0,40.268v2.143a.344.344,0,0,0,.357.357h2.5a5.365,5.365,0,0,0,1.429-.184,5.5,5.5,0,0,0,1.189-.469,4.551,4.551,0,0,0,1-.765,8.936,8.936,0,0,0,.826-.926,9.511,9.511,0,0,0,.714-1.116q.374-.67.6-1.172T9.178,36.9Z" transform="translate(-0.004 -27.411)" fill="#6d6d6d"/>
      <path id="Контур_17" data-name="Контур 17" d="M.357,94.223h2.5a2.5,2.5,0,0,1,.91.162,2.625,2.625,0,0,1,.7.391,3.113,3.113,0,0,1,.569.631,7.378,7.378,0,0,1,.452.709q.167.307.413.809a20.673,20.673,0,0,1,1.529-3.047,5.405,5.405,0,0,0-4.576-2.511H.357A.344.344,0,0,0,0,91.723v2.143a.344.344,0,0,0,.357.357Z" transform="translate(0 -88.866)" fill="#6d6d6d"/>
      <path id="Контур_18" data-name="Контур 18" d="M220.18,278.4a.42.42,0,0,0-.268-.111.343.343,0,0,0-.357.357v2.143H216.7a2.5,2.5,0,0,1-.91-.162,2.62,2.62,0,0,1-.7-.391,3.111,3.111,0,0,1-.569-.631,7.311,7.311,0,0,1-.452-.709q-.167-.306-.413-.809a22.461,22.461,0,0,1-1.518,3.047,6.437,6.437,0,0,0,.625.775q.324.34.614.6a3.2,3.2,0,0,0,.658.446q.368.19.647.318a3.016,3.016,0,0,0,.7.207q.424.078.714.117t.792.056q.5.017.814.011t.9-.011q.592-.005.949-.006v2.143a.362.362,0,0,0,.357.357.347.347,0,0,0,.257-.1l3.572-3.571a.378.378,0,0,0,0-.513Z" transform="translate(-203.84 -268.288)" fill="#6d6d6d"/>
    </g>
  </g>
</svg>
