<svg xmlns="http://www.w3.org/2000/svg" width="16" height="16" viewBox="0 0 16 16">
  <path id="Контур_31" data-name="Контур 31" d="M14.758,7.249l-3,3A4.2,4.2,0,0,1,5.1,9.4L6.5,8a1,1,0,0,1,.227-.15,2.09,2.09,0,0,0,.524.9,2.125,2.125,0,0,0,3,0l3-3a2.123,2.123,0,0,0-3-3L9.186,3.814a5.328,5.328,0,0,0-2.709-.295L8.752,1.244a4.247,4.247,0,0,1,6.006,6.006Zm-7.94,4.937L5.749,13.255a2.124,2.124,0,0,1-3-3l3-3a2.125,2.125,0,0,1,3,0,2.1,2.1,0,0,1,.525.9A1.02,1.02,0,0,0,9.5,8L10.9,6.6a4.174,4.174,0,0,0-.645-.857,4.246,4.246,0,0,0-6.005,0l-3,3a4.247,4.247,0,0,0,6.006,6.006l2.276-2.276A5.324,5.324,0,0,1,6.818,12.186Z" transform="translate(-0.001 0)" fill="#c1c1c1"/>
</svg>
