<svg xmlns="http://www.w3.org/2000/svg" width="20" height="18.628" viewBox="0 0 20 18.628">
  <g id="logout" transform="translate(-1 1)">
    <g id="time" transform="translate(1 -12.868)">
      <path id="Контур_262" data-name="Контур 262" d="M83.156,107.826a1.592,1.592,0,0,1-.337-.354l-.018-.032a5.942,5.942,0,0,1-.392-1.958c-.008-.088-.016-.172-.024-.251,0-.008,0-.016,0-.028a7.193,7.193,0,0,0-1.214-3.2,3.889,3.889,0,0,0-1.984-1.46,1.168,1.168,0,0,0-2.313,0A3.888,3.888,0,0,0,74.886,102a7.191,7.191,0,0,0-1.214,3.2v.007c0,.008,0,.015,0,.02-.008.079-.016.163-.024.251a5.925,5.925,0,0,1-.395,1.961l-.015.025a1.589,1.589,0,0,1-.338.357,1.49,1.49,0,0,0-.471,2.03A.654.654,0,0,0,73,110.2H83.05a.655.655,0,0,0,.577-.344A1.491,1.491,0,0,0,83.156,107.826Z" transform="translate(-68.026 -82.603)" fill="#cfcfcf"/>
      <path id="Контур_263" data-name="Контур 263" d="M149.5,302.979h-2.324a.321.321,0,0,0-.246.115.506.506,0,0,0-.063.427v.009a1.513,1.513,0,0,0,2.988-.05l0-.012a.417.417,0,0,0-.069-.359A.364.364,0,0,0,149.5,302.979Z" transform="translate(-138.36 -274.285)" fill="#cfcfcf"/>
      <path id="Контур_264" data-name="Контур 264" d="M5.875,12.6a.867.867,0,0,0-1-.716,5.85,5.85,0,0,0-3.4,1.861A5.775,5.775,0,0,0,0,17.282a.867.867,0,0,0,.813.918l.053,0a.867.867,0,0,0,.865-.815,4.1,4.1,0,0,1,3.426-3.8A.867.867,0,0,0,5.875,12.6Z" transform="translate(0 0)" fill="#cfcfcf"/>
      <path id="Контур_265" data-name="Контур 265" d="M54.892,67.245a2.181,2.181,0,0,1,1.825-2.021.867.867,0,1,0-.28-1.711,3.915,3.915,0,0,0-3.275,3.628.867.867,0,0,0,.813.918l.053,0A.867.867,0,0,0,54.892,67.245Z" transform="translate(-50.086 -48.649)" fill="#cfcfcf"/>
      <path id="Контур_266" data-name="Контур 266" d="M250.067,17.282a5.775,5.775,0,0,0-1.479-3.541,5.85,5.85,0,0,0-3.4-1.861.867.867,0,1,0-.28,1.711,4.1,4.1,0,0,1,3.426,3.8.867.867,0,0,0,.865.815l.053,0A.867.867,0,0,0,250.067,17.282Z" transform="translate(-230.068 0)" fill="#cfcfcf"/>
      <path id="Контур_267" data-name="Контур 267" d="M222.02,64.763a3.929,3.929,0,0,0-2.282-1.25.867.867,0,1,0-.28,1.711,2.181,2.181,0,0,1,1.825,2.021.867.867,0,0,0,.865.815l.053,0a.867.867,0,0,0,.813-.918A3.93,3.93,0,0,0,222.02,64.763Z" transform="translate(-206.087 -48.65)" fill="#cfcfcf"/>
    </g>
  </g>
</svg>
