<svg xmlns="http://www.w3.org/2000/svg" width="20" height="14.987" viewBox="0 0 20 14.987">
  <g id="open-folder" transform="translate(0 -67.229)">
    <g id="Сгруппировать_5" data-name="Сгруппировать 5" transform="translate(0 67.229)">
      <path id="Контур_13" data-name="Контур 13" d="M5.4,74.547a5.008,5.008,0,0,1,2.1-.506h8.856v-1.7a2.4,2.4,0,0,0-2.385-2.385H8.175v-.341a2.294,2.294,0,0,0-.7-1.682,2.3,2.3,0,0,0-1.682-.7H2.384a2.3,2.3,0,0,0-1.682.7A2.294,2.294,0,0,0,0,69.613V79.832q0,.043.005.133c0,.06.005.1.005.133l.053-.064,3.587-4.215A4.965,4.965,0,0,1,5.4,74.547Z" transform="translate(0 -67.229)" fill="#6d6d6d"/>
      <path id="Контур_14" data-name="Контур 14" d="M39.784,286.633a1.441,1.441,0,0,0-.644-.139H27.559a3.694,3.694,0,0,0-1.527.378,3.609,3.609,0,0,0-1.283.921l-3.576,4.215a1.1,1.1,0,0,0-.33.7.473.473,0,0,0,.282.457,1.442,1.442,0,0,0,.644.139H33.35a3.7,3.7,0,0,0,1.527-.378,3.606,3.606,0,0,0,1.282-.921l3.576-4.215a1.1,1.1,0,0,0,.33-.7A.473.473,0,0,0,39.784,286.633Z" transform="translate(-20.066 -278.319)" fill="#6d6d6d"/>
    </g>
  </g>
</svg>
