<svg xmlns="http://www.w3.org/2000/svg" width="8.778" height="13.926" viewBox="0 0 8.778 13.926">
  <g id="arrows_1_" data-name="arrows(1)" transform="translate(-106.222 -161)">
    <path id="Контур_228" data-name="Контур 228" d="M90.669,6.159,84.841.34a1.123,1.123,0,0,0-1.609,0l-.679.67a1.1,1.1,0,0,0-.331.8,1.144,1.144,0,0,0,.331.813L86.9,6.963l-4.344,4.344a1.1,1.1,0,0,0-.331.8,1.144,1.144,0,0,0,.331.813l.679.67a1.144,1.144,0,0,0,1.609,0l5.828-5.819A1.144,1.144,0,0,0,91,6.963,1.1,1.1,0,0,0,90.669,6.159Z" transform="translate(24 161)" fill="#7b7b7b"/>
  </g>
</svg>
