<svg xmlns="http://www.w3.org/2000/svg" width="20" height="19.075" viewBox="0 0 20 19.075">
  <g id="star" transform="translate(0 -10.99)">
    <path id="Контур_15" data-name="Контур 15" d="M20,18.382q0-.445-.673-.553l-6.033-.877-2.7-5.469q-.228-.493-.589-.493t-.589.493l-2.7,5.469-6.034.877Q0,17.937,0,18.382a.916.916,0,0,0,.3.577l4.375,4.255-1.034,6.01a1.952,1.952,0,0,0-.024.24.708.708,0,0,0,.126.427.436.436,0,0,0,.379.174,1.02,1.02,0,0,0,.481-.144L10,27.084l5.4,2.837a.973.973,0,0,0,.481.144.424.424,0,0,0,.367-.174.71.71,0,0,0,.126-.427,1.816,1.816,0,0,0-.012-.24l-1.034-6.01,4.363-4.255A.868.868,0,0,0,20,18.382Z" fill="#6d6d6d"/>
  </g>
</svg>
