<svg xmlns="http://www.w3.org/2000/svg" width="20" height="19.813" viewBox="0 0 20 19.813">
  <g id="user-silhouette" transform="translate(0.001 -1.916)">
    <g id="Сгруппировать_9" data-name="Сгруппировать 9" transform="translate(-0.001 1.916)">
      <path id="Контур_22" data-name="Контур 22" d="M117.327,12.413c2.476,0,4.484-2.35,4.484-5.249,0-4.02-2.008-5.249-4.484-5.249s-4.484,1.229-4.484,5.249C112.843,10.063,114.851,12.413,117.327,12.413Z" transform="translate(-107.327 -1.916)" fill="#6d6d6d"/>
      <path id="Контур_23" data-name="Контур 23" d="M19.9,228.9l-2.262-5.1a1.135,1.135,0,0,0-.512-.544l-3.511-1.828a.226.226,0,0,0-.241.02,5.539,5.539,0,0,1-6.753,0,.227.227,0,0,0-.241-.02l-3.511,1.828a1.135,1.135,0,0,0-.512.544L.1,228.9a1.131,1.131,0,0,0,1.034,1.59H18.868A1.131,1.131,0,0,0,19.9,228.9Z" transform="translate(0.001 -210.674)" fill="#6d6d6d"/>
    </g>
  </g>
</svg>
