<svg id="Сгруппировать_268" data-name="Сгруппировать 268" xmlns="http://www.w3.org/2000/svg" width="20" height="19.999" viewBox="0 0 20 19.999">
  <g id="Search_1_">
    <path id="Контур_19" data-name="Контур 19" d="M19.508,17.143,15.162,12.8c-.024-.024-.048-.04-.072-.064a8.187,8.187,0,1,0-2.349,2.357c.024.024.04.048.064.072l4.346,4.346a1.669,1.669,0,1,0,2.357-2.365ZM8.22,13.588A5.368,5.368,0,1,1,13.588,8.22,5.37,5.37,0,0,1,8.22,13.588Z" fill="#6d6d6d"/>
  </g>
  <path id="Контур_20" data-name="Контур 20" d="M68.492,65.3h-1.6V63.7a.8.8,0,0,0-1.6,0v1.6H63.7a.8.8,0,1,0,0,1.6h1.6v1.6a.8.8,0,0,0,1.6,0v-1.6h1.6a.8.8,0,0,0,0-1.6Z" transform="translate(-57.875 -57.875)" fill="#6d6d6d"/>
</svg>
