<svg xmlns="http://www.w3.org/2000/svg" width="101" height="28.573" viewBox="0 0 101 28.573">
  <g id="_4e2318cccaff" data-name="4e2318cccaff" transform="translate(0 0.1)">
    <circle id="Эллипс_15" data-name="Эллипс 15" cx="7.719" cy="7.719" r="7.719" transform="translate(13.134 13.034)" fill="#97cf26"/>
    <circle id="Эллипс_16" data-name="Эллипс 16" cx="3.593" cy="3.593" r="3.593" transform="translate(2.751 17.16)" fill="#a169f7"/>
    <circle id="Эллипс_17" data-name="Эллипс 17" cx="4.968" cy="4.968" r="4.968" transform="translate(15.885 1.275)" fill="#ff6163"/>
    <circle id="Эллипс_18" data-name="Эллипс 18" cx="6.344" cy="6.344" r="6.344" transform="translate(0 -0.1)" fill="#0af"/>
    <path id="Контур_252" data-name="Контур 252" d="M115.24,32.316h4.007L111.826,12.11h-2.906L101.5,32.317H105.5l1.417-3.857h6.9l1.417,3.857-7.2-6.9,2.335-6.354,2.333,6.354h-4.668Z" transform="translate(-66.599 -8.012)"/>
    <path id="Контур_253" data-name="Контур 253" d="M160.754,30.756l-3.688,10.038L153.38,30.756h-3.765l5.069,13.8h4.765l5.068-13.8h-3.764" transform="translate(-98.172 -20.247)"/>
    <g id="Сгруппировать_188" data-name="Сгруппировать 188" transform="translate(67.392 4.095)">
      <path id="Контур_254" data-name="Контур 254" d="M197.538,30.756H201.3v13.8h-3.765Z" transform="translate(-197.009 -24.341)"/>
      <circle id="Эллипс_19" data-name="Эллипс 19" cx="2.424" cy="2.424" r="2.424"/>
    </g>
    <path id="Контур_255" data-name="Контур 255" d="M225.68,26.534v-3.04h-4.51V19.688h-3.763v3.806H214.43v3.04h2.978v5.935c0,3.062,1.531,5.1,5.439,5.1a8.24,8.24,0,0,0,2.833-.554l-.457-2.979a6.42,6.42,0,0,1-1.652.221c-1.117,0-2.4-.481-2.4-2.025v-5.7h4.51" transform="translate(-140.702 -12.984)"/>
    <path id="Контур_256" data-name="Контур 256" d="M258.157,40.726a3.717,3.717,0,1,1,3.8-3.717,3.759,3.759,0,0,1-3.8,3.717m0-10.994a7.229,7.229,0,1,0,7.388,7.227,7.311,7.311,0,0,0-7.388-7.227" transform="translate(-164.545 -19.575)"/>
  </g>
</svg>
