<svg xmlns="http://www.w3.org/2000/svg" xmlns:xlink="http://www.w3.org/1999/xlink" width="259.404" height="35.572" viewBox="0 0 259.404 35.572">
  <defs>
    <linearGradient id="linear-gradient" x1="0.135" y1="0.082" x2="0.832" y2="0.929" gradientUnits="objectBoundingBox">
      <stop offset="0" stop-color="#48a0db"/>
      <stop offset="1" stop-color="#54aeeb"/>
    </linearGradient>
    <linearGradient id="linear-gradient-2" x1="0.886" y1="0.04" x2="0.124" y2="0.963" gradientUnits="objectBoundingBox">
      <stop offset="0" stop-color="#8dd1ff"/>
      <stop offset="1" stop-color="#5ebbfb"/>
    </linearGradient>
    <linearGradient id="linear-gradient-3" x1="1" y1="0.079" x2="0.034" y2="0.885" gradientUnits="objectBoundingBox">
      <stop offset="0" stop-color="#78c8ff"/>
      <stop offset="1" stop-color="#7ac9ff"/>
    </linearGradient>
  </defs>
  <g id="Сгруппировать_4" data-name="Сгруппировать 4" transform="translate(-0.009 -7.227)">
    <text id="AVITO-STAT" transform="translate(63.413 36.799)" fill="#333" font-size="32" font-family="GothamPro, Gotham Pro"><tspan x="0" y="0">AVITO-STAT</tspan></text>
    <g id="Сгруппировать_1" data-name="Сгруппировать 1">
      <path id="Контур_9" data-name="Контур 9" d="M43.5,40A2.851,2.851,0,0,1,41,38.6L31.7,24.3A3.037,3.037,0,0,1,36.8,21l6.3,9.7,3.2,7.5A3.129,3.129,0,0,1,43.8,40Z" fill="url(#linear-gradient)"/>
    </g>
    <g id="Сгруппировать_2" data-name="Сгруппировать 2">
      <path id="Контур_10" data-name="Контур 10" d="M43.5,40a2.663,2.663,0,0,1-1.2-.3,3.038,3.038,0,0,1-1.5-4L52.8,9a3.021,3.021,0,1,1,5.5,2.5l-12,26.7A3.309,3.309,0,0,1,43.5,40Z" fill="url(#linear-gradient-2)"/>
    </g>
    <g id="Сгруппировать_3" data-name="Сгруппировать 3">
      <line id="Линия_1" data-name="Линия 1" y1="15.4" x2="31.3" transform="translate(3 22.1)" fill="#1589ad"/>
      <path id="Контур_11" data-name="Контур 11" d="M3,40.5A2.947,2.947,0,0,1,.3,38.8a3,3,0,0,1,1.4-4L33,19.4a3,3,0,1,1,2.6,5.4L4.3,40.2A3.079,3.079,0,0,1,3,40.5Z" fill="url(#linear-gradient-3)"/>
    </g>
  </g>
</svg>
